<svg xmlns="http://www.w3.org/2000/svg" xmlns:xlink="http://www.w3.org/1999/xlink" width="2048" zoomAndPan="magnify" viewBox="0 0 1536 1535.999932" height="2048" preserveAspectRatio="xMidYMid meet" version="1.2"><defs><clipPath id="459b70d50a"><path d="M 29.5625 22.101562 L 726 22.101562 L 726 1513.851562 L 29.5625 1513.851562 Z M 29.5625 22.101562 "/></clipPath><clipPath id="727faec548"><path d="M 809 22.101562 L 1506.3125 22.101562 L 1506.3125 1513.851562 L 809 1513.851562 Z M 809 22.101562 "/></clipPath></defs><g id="55d832395b"><rect x="0" width="1536" y="0" height="1535.999932" style="fill:#ffffff;fill-opacity:1;stroke:none;"/><rect x="0" width="1536" y="0" height="1535.999932" style="fill:#ff5757;fill-opacity:1;stroke:none;"/><path style=" stroke:none;fill-rule:evenodd;fill:#ffffff;fill-opacity:1;" d="M 135.378906 226.777344 C 78.792969 260.351562 105.785156 514.164062 120.753906 595.488281 C 127.730469 633.394531 170.433594 648.691406 242.832031 653.007812 C 289.421875 655.777344 545.089844 673.683594 628.800781 635.289062 C 649.398438 625.847656 663.929688 603.042969 667.773438 586.902344 C 692.902344 481.253906 681.554688 404.84375 678.128906 286.9375 C 676.949219 246.601562 647.691406 213.074219 549.234375 210.464844 C 482.417969 208.695312 416.414062 203.246094 324.027344 201.839844 C 232.351562 200.441406 166.894531 208.082031 135.378906 226.777344 Z M 135.378906 226.777344 "/><path style=" stroke:none;fill-rule:evenodd;fill:#ffffff;fill-opacity:1;" d="M 922.613281 226.777344 C 866.023438 260.351562 893.015625 514.164062 907.984375 595.488281 C 914.964844 633.394531 957.664062 648.691406 1030.0625 653.007812 C 1076.65625 655.777344 1332.320312 673.683594 1416.035156 635.289062 C 1436.628906 625.847656 1451.164062 603.042969 1455.003906 586.902344 C 1480.132812 481.253906 1468.789062 404.84375 1465.359375 286.9375 C 1464.179688 246.601562 1434.921875 213.074219 1336.464844 210.464844 C 1269.648438 208.695312 1203.648438 203.246094 1111.257812 201.839844 C 1019.585938 200.441406 954.125 208.082031 922.613281 226.777344 Z M 922.613281 226.777344 "/><path style=" stroke:none;fill-rule:evenodd;fill:#ffffff;fill-opacity:1;" d="M 135.378906 424.226562 C 78.792969 457.800781 105.785156 711.613281 120.753906 792.9375 C 127.730469 830.84375 170.433594 846.140625 242.832031 850.457031 C 289.421875 853.226562 545.089844 871.132812 628.800781 832.738281 C 649.398438 823.296875 663.929688 800.492188 667.773438 784.351562 C 692.902344 678.703125 681.554688 602.292969 678.128906 484.386719 C 676.949219 444.050781 647.691406 410.523438 549.234375 407.914062 C 482.417969 406.144531 416.414062 400.695312 324.027344 399.289062 C 232.351562 397.890625 166.894531 405.53125 135.378906 424.226562 Z M 135.378906 424.226562 "/><path style=" stroke:none;fill-rule:evenodd;fill:#ffffff;fill-opacity:1;" d="M 922.613281 424.226562 C 866.023438 457.800781 893.015625 711.613281 907.984375 792.9375 C 914.964844 830.84375 957.664062 846.140625 1030.0625 850.457031 C 1076.65625 853.226562 1332.320312 871.132812 1416.035156 832.738281 C 1436.628906 823.296875 1451.164062 800.492188 1455.003906 784.351562 C 1480.132812 678.703125 1468.789062 602.292969 1465.359375 484.386719 C 1464.179688 444.050781 1434.921875 410.523438 1336.464844 407.914062 C 1269.648438 406.144531 1203.648438 400.695312 1111.257812 399.289062 C 1019.585938 397.890625 954.125 405.53125 922.613281 424.226562 Z M 922.613281 424.226562 "/><path style=" stroke:none;fill-rule:evenodd;fill:#ffffff;fill-opacity:1;" d="M 135.378906 606.292969 C 78.792969 639.863281 105.785156 893.675781 120.753906 975 C 127.730469 1012.90625 170.433594 1028.203125 242.832031 1032.519531 C 289.421875 1035.289062 545.089844 1053.195312 628.800781 1014.800781 C 649.398438 1005.359375 663.929688 982.554688 667.773438 966.417969 C 692.902344 860.765625 681.554688 784.359375 678.128906 666.449219 C 676.949219 626.113281 647.691406 592.585938 549.234375 589.976562 C 482.417969 588.207031 416.414062 582.757812 324.027344 581.351562 C 232.351562 579.953125 166.894531 587.59375 135.378906 606.292969 Z M 135.378906 606.292969 "/><path style=" stroke:none;fill-rule:evenodd;fill:#ffffff;fill-opacity:1;" d="M 922.613281 606.292969 C 866.023438 639.863281 893.015625 893.675781 907.984375 975 C 914.964844 1012.90625 957.664062 1028.203125 1030.0625 1032.519531 C 1076.65625 1035.289062 1332.320312 1053.195312 1416.035156 1014.800781 C 1436.628906 1005.359375 1451.164062 982.554688 1455.003906 966.417969 C 1480.132812 860.765625 1468.789062 784.359375 1465.359375 666.449219 C 1464.179688 626.113281 1434.921875 592.585938 1336.464844 589.976562 C 1269.648438 588.207031 1203.648438 582.757812 1111.257812 581.351562 C 1019.585938 579.953125 954.125 587.59375 922.613281 606.292969 Z M 922.613281 606.292969 "/><path style=" stroke:none;fill-rule:evenodd;fill:#ffffff;fill-opacity:1;" d="M 135.378906 794.363281 C 78.792969 827.9375 105.785156 1081.75 120.753906 1163.074219 C 127.730469 1200.980469 170.433594 1216.277344 242.832031 1220.59375 C 289.421875 1223.363281 545.089844 1241.265625 628.800781 1202.875 C 649.398438 1193.429688 663.929688 1170.628906 667.773438 1154.488281 C 692.902344 1048.839844 681.554688 972.429688 678.128906 854.523438 C 676.949219 814.1875 647.691406 780.65625 549.234375 778.050781 C 482.417969 776.28125 416.414062 770.828125 324.027344 769.421875 C 232.351562 768.027344 166.894531 775.667969 135.378906 794.363281 Z M 135.378906 794.363281 "/><path style=" stroke:none;fill-rule:evenodd;fill:#ffffff;fill-opacity:1;" d="M 922.613281 794.363281 C 866.023438 827.9375 893.015625 1081.75 907.984375 1163.074219 C 914.964844 1200.980469 957.664062 1216.277344 1030.0625 1220.59375 C 1076.65625 1223.363281 1332.320312 1241.265625 1416.035156 1202.875 C 1436.628906 1193.429688 1451.164062 1170.628906 1455.003906 1154.488281 C 1480.132812 1048.839844 1468.789062 972.429688 1465.359375 854.523438 C 1464.179688 814.1875 1434.921875 780.65625 1336.464844 778.050781 C 1269.648438 776.28125 1203.648438 770.828125 1111.257812 769.421875 C 1019.585938 768.027344 954.125 775.667969 922.613281 794.363281 Z M 922.613281 794.363281 "/><path style=" stroke:none;fill-rule:evenodd;fill:#ffffff;fill-opacity:1;" d="M 135.378906 868.726562 C 78.792969 902.300781 105.785156 1156.113281 120.753906 1237.4375 C 127.730469 1275.34375 170.433594 1290.640625 242.832031 1294.957031 C 289.421875 1297.726562 545.089844 1315.632812 628.800781 1277.238281 C 649.398438 1267.796875 663.929688 1244.992188 667.773438 1228.851562 C 692.902344 1123.203125 681.554688 1046.792969 678.128906 928.886719 C 676.949219 888.550781 647.691406 855.023438 549.234375 852.414062 C 482.417969 850.644531 416.414062 845.195312 324.027344 843.789062 C 232.351562 842.390625 166.894531 850.03125 135.378906 868.726562 Z M 135.378906 868.726562 "/><path style=" stroke:none;fill-rule:evenodd;fill:#ffffff;fill-opacity:1;" d="M 922.613281 868.726562 C 866.023438 902.300781 893.015625 1156.113281 907.984375 1237.4375 C 914.964844 1275.34375 957.664062 1290.640625 1030.0625 1294.957031 C 1076.65625 1297.726562 1332.320312 1315.632812 1416.035156 1277.238281 C 1436.628906 1267.796875 1451.164062 1244.992188 1455.003906 1228.851562 C 1480.132812 1123.203125 1468.789062 1046.792969 1465.359375 928.886719 C 1464.179688 888.550781 1434.921875 855.023438 1336.464844 852.414062 C 1269.648438 850.644531 1203.648438 845.195312 1111.257812 843.789062 C 1019.585938 842.390625 954.125 850.03125 922.613281 868.726562 Z M 922.613281 868.726562 "/><g clip-rule="nonzero" clip-path="url(#459b70d50a)"><path style=" stroke:none;fill-rule:nonzero;fill:#000000;fill-opacity:1;" d="M 29.5625 354.609375 C 29.5625 328.070312 38.714844 302.140625 57.015625 276.820312 C 75.320312 251.5 97.589844 233.804688 124.128906 224.042969 L 631.121094 28.800781 C 637.832031 26.359375 643.628906 24.527344 649.121094 23.917969 C 654.609375 23.003906 659.796875 22.699219 664.675781 22.699219 C 682.980469 22.699219 697.621094 28.492188 708.910156 40.085938 C 720.195312 51.679688 725.6875 67.542969 725.6875 87.371094 L 725.6875 1181.34375 C 725.6875 1207.886719 716.535156 1233.816406 698.234375 1259.136719 C 679.929688 1284.457031 657.660156 1302.152344 631.121094 1311.914062 L 124.128906 1507.15625 C 113.449219 1511.425781 102.164062 1513.257812 90.570312 1513.257812 C 72.269531 1513.257812 57.625 1507.460938 46.339844 1495.871094 C 35.054688 1484.277344 29.5625 1468.414062 29.5625 1448.582031 Z M 555.46875 788.417969 C 555.46875 743.574219 535.640625 716.726562 495.679688 707.574219 C 535.335938 667 555.46875 623.984375 555.46875 578.226562 L 555.46875 388.167969 C 555.46875 342.714844 545.402344 310.375 525.574219 291.765625 C 505.746094 273.160156 482.5625 263.699219 456.023438 263.699219 C 436.804688 263.699219 417.585938 267.363281 397.453125 274.988281 L 248.28125 332.035156 C 237.605469 336.308594 228.453125 343.933594 220.828125 355.527344 C 213.507812 367.117188 209.542969 379.015625 209.542969 391.523438 L 209.542969 1259.136719 C 209.542969 1268.289062 211.980469 1275.609375 216.863281 1281.40625 C 221.742188 1287.203125 228.148438 1290.253906 235.472656 1290.253906 C 236.996094 1290.253906 241.265625 1289.339844 247.976562 1287.8125 L 397.148438 1229.238281 C 415.449219 1221.917969 434.058594 1211.242188 452.972656 1197.511719 C 471.886719 1183.785156 488.96875 1167.007812 503.914062 1147.175781 C 518.863281 1127.347656 531.066406 1104.46875 540.523438 1078.839844 C 549.976562 1053.214844 554.859375 1024.84375 554.859375 994.339844 L 554.859375 788.417969 Z M 416.0625 633.136719 C 416.0625 657.238281 405.6875 673.40625 384.945312 681.644531 L 359.933594 691.710938 L 359.933594 444.300781 L 384.945312 434.234375 C 388.300781 432.707031 392.878906 431.792969 398.671875 431.792969 C 410.265625 431.792969 416.0625 441.25 416.0625 460.46875 Z M 416.0625 1030.945312 C 416.0625 1057.488281 405.6875 1074.570312 384.945312 1081.890625 L 359.933594 1091.960938 L 359.933594 830.820312 L 384.945312 820.753906 C 391.65625 819.230469 395.621094 818.3125 397.453125 818.3125 C 409.960938 818.3125 416.0625 827.769531 416.0625 846.992188 Z M 416.0625 1030.945312 "/></g><g clip-rule="nonzero" clip-path="url(#727faec548)"><path style=" stroke:none;fill-rule:nonzero;fill:#000000;fill-opacity:1;" d="M 810.1875 354.609375 C 810.1875 328.070312 819.335938 302.140625 837.640625 276.820312 C 855.945312 251.5 878.210938 233.804688 904.753906 224.042969 L 1411.746094 28.800781 C 1418.457031 26.359375 1424.253906 24.527344 1429.742188 23.917969 C 1435.234375 23.003906 1440.421875 22.699219 1445.300781 22.699219 C 1463.605469 22.699219 1478.246094 28.492188 1489.535156 40.085938 C 1500.820312 51.679688 1506.3125 67.542969 1506.3125 87.371094 L 1506.3125 1181.34375 C 1506.3125 1207.886719 1497.160156 1233.816406 1478.855469 1259.136719 C 1460.554688 1284.457031 1438.285156 1302.152344 1411.746094 1311.914062 L 904.445312 1507.15625 C 893.769531 1511.425781 882.484375 1513.257812 870.890625 1513.257812 C 852.589844 1513.257812 837.945312 1507.460938 826.660156 1495.871094 C 815.371094 1484.277344 809.882812 1468.414062 809.882812 1448.582031 L 809.882812 354.609375 Z M 1336.09375 1059.621094 C 1336.09375 1049.554688 1333.652344 1041.929688 1328.773438 1036.742188 C 1323.890625 1031.25 1317.484375 1028.8125 1310.164062 1028.8125 C 1304.367188 1028.8125 1299.792969 1029.726562 1296.4375 1031.25 L 1185.703125 1073.046875 L 1185.703125 316.171875 C 1185.703125 294.511719 1176.550781 283.835938 1158.25 283.835938 C 1155.808594 283.835938 1151.234375 284.75 1144.523438 286.277344 L 1073.75 313.730469 C 1063.074219 318.003906 1053.921875 325.628906 1046.296875 337.222656 C 1038.972656 348.816406 1035.007812 360.710938 1035.007812 373.21875 L 1035.007812 1239.613281 C 1035.007812 1248.765625 1037.449219 1256.085938 1042.328125 1261.882812 C 1047.210938 1267.679688 1053.617188 1270.730469 1060.9375 1270.730469 C 1062.464844 1270.730469 1066.734375 1269.8125 1073.445312 1268.289062 L 1295.828125 1183.785156 C 1307.417969 1179.515625 1316.875 1171.582031 1324.5 1159.683594 C 1331.824219 1147.785156 1335.789062 1135.890625 1335.789062 1124.296875 L 1335.789062 1059.621094 Z M 1336.09375 1059.621094 "/></g></g></svg>